<svg width="576" height="157" viewBox="0 0 576 157" fill="none" xmlns="http://www.w3.org/2000/svg">
<g clip-path="url(#clip0_577_4378)">
<path d="M77.77 52.17H0V156.2H104.02V106.25H41.63L77.77 52.17Z" fill="#393A3A"/>
<path d="M111.49 0.599976L77.77 52.17H104.02V106.25H179.34L111.49 0.599976Z" fill="#D69C61"/>
<path d="M477.44 51.58H456.8V63.45H476.14V70.28H456.8V84.26C465.66 84.18 471.84 83.85 479.23 82.8L479.88 89.95C471.51 91.41 464.52 91.66 453.38 91.74H448.5V44.59H477.43V51.58H477.44ZM483.45 38.09H491.9V64.91H499.21V36.79H507.66V108.47H499.21V72.06H491.9V105.06H483.45V38.09Z" fill="#393A3A"/>
<path d="M558.39 69.3L553.68 76.29C545.88 73.45 540.35 68.24 537.34 61.42C534.17 69.22 528.24 75.4 519.54 78.41L514.83 71.42C526.7 67.44 532.63 57.85 532.71 47.53V40.7H541.49V47.04C541.49 56.87 547.18 65.81 558.4 69.31L558.39 69.3ZM551.08 80.84C566.28 80.92 575.54 85.96 575.63 94.66C575.55 103.52 566.28 108.48 551.08 108.48C535.88 108.48 526.62 103.52 526.7 94.66C526.62 85.96 535.97 80.92 551.08 80.84ZM551.08 101.48C561.08 101.56 566.77 99.12 566.85 94.65C566.77 90.18 561.08 87.82 551.08 87.82C541.08 87.82 535.39 90.18 535.48 94.65C535.4 99.12 541.09 101.56 551.08 101.48ZM552.22 50.6H566.52V36.78H575.3V79.04H566.52V57.91H552.22V50.6Z" fill="#393A3A"/>
<path d="M208.56 54.28H221.86V46.22H228.98V56.97H240.94V43.13H248.2V75.51H240.94V63.01H228.98V73.76H201.3V46.21H208.56V54.27V54.28ZM221.86 67.85V59.92H208.56V67.85H221.86ZM209.09 78.2H216.35V84.25H240.94V78.2H248.2V101.58H209.1V78.2H209.09ZM240.94 95.67V89.89H216.35V95.67H240.94Z" fill="#393A3A"/>
<path d="M310.15 82.63H286.5V102.38H279.24V82.63H255.86V76.72H310.15V82.63ZM262.45 46.21H303.43V69.73H262.45V46.21ZM296.18 64.08V51.99H269.71V64.08H296.18Z" fill="#393A3A"/>
<path d="M323.32 54.28H336.62V46.22H343.74V56.97H355.7V43.13H362.96V75.51H355.7V63.01H343.74V73.76H316.06V46.21H323.32V54.27V54.28ZM336.62 67.85V59.92H323.32V67.85H336.62ZM323.85 78.2H331.11V84.25H355.7V78.2H362.96V101.58H323.86V78.2H323.85ZM355.7 95.67V89.89H331.11V95.67H355.7Z" fill="#393A3A"/>
<path d="M387.82 47.16C396.76 47.09 403.74 53.2699 403.68 61.9399C403.75 70.6699 396.76 76.79 387.82 76.72C378.75 76.79 371.76 70.6699 371.83 61.9399C371.76 53.2699 378.75 47.09 387.82 47.16ZM387.82 70.4099C392.72 70.4099 396.55 67.1899 396.55 61.9399C396.55 56.6899 392.72 53.4699 387.82 53.4699C382.92 53.4699 378.88 56.7599 378.95 61.9399C378.88 67.1799 382.71 70.4099 387.82 70.4099ZM380.83 81.6999H388.22V95.4099H421.68V101.32H380.83V81.6999ZM420.07 86H412.81V43.2599H420.07V85.9899V86Z" fill="#393A3A"/>
<path d="M149.01 135.31H151.89V151.75H160.44V154.23H149.02V135.3H149.01V135.31Z" fill="#393A3A"/>
<path d="M175.76 154.24L182.56 135.31H185.88L192.7 154.24H189.64L187.91 149.25H180.54L178.81 154.24H175.75H175.76ZM187.08 146.84L184.28 138.76H184.15L181.37 146.84H187.08Z" fill="#393A3A"/>
<path d="M205.61 135.31H208.64L212.33 149.95H212.49L216.33 135.31H219.31L223.15 149.95H223.31L227 135.31H230.03L224.78 154.24H221.88L217.91 140.1H217.75L213.78 154.24H210.88L205.63 135.31H205.61Z" fill="#393A3A"/>
<path d="M245.74 135.31H257.48V137.79H248.62V143.51H256.64V145.97H248.62V154.23H245.74V135.3V135.31Z" fill="#393A3A"/>
<path d="M276.5 154.24H273.62V135.31H276.5V154.24Z" fill="#393A3A"/>
<path d="M293.86 135.31H300.6C305 135.31 307.16 137.75 307.16 141.24C307.16 143.79 306.01 145.71 303.71 146.59L307.89 154.24H304.62L300.78 147.1H296.73V154.24H293.85V135.31H293.86ZM300.32 144.62C303.1 144.62 304.27 143.38 304.27 141.25C304.27 139.12 303.11 137.79 300.32 137.77H296.74V144.62H300.32Z" fill="#393A3A"/>
<path d="M327.37 135.31L333.36 149.97H333.6L339.59 135.31H343.09V154.24H340.35V140.57H340.17L334.63 154.22H332.36L326.79 140.55H326.63V154.25H323.89V135.32H327.39H327.37V135.31Z" fill="#393A3A"/>
<path d="M377.34 135.31H392V137.79H386.12V154.23H383.24V137.79H377.33V135.31H377.34Z" fill="#393A3A"/>
<path d="M404.34 154.24L411.14 135.31H414.46L421.28 154.24H418.22L416.49 149.25H409.12L407.39 154.24H404.33H404.34ZM415.66 146.84L412.86 138.76H412.73L409.95 146.84H415.66Z" fill="#393A3A"/>
<path d="M437.03 135.31H448.9V137.79H439.91V143.51H448.27V145.97H439.91V151.75H449.01V154.23H437.04V135.3H437.03V135.31Z" fill="#393A3A"/>
<path d="M471.75 137.54C469.44 137.54 467.97 138.73 467.96 140.34C467.96 142.13 469.91 142.84 471.41 143.19L473.24 143.69C475.66 144.28 478.69 145.6 478.7 149.02C478.69 152.22 476.14 154.56 471.67 154.56C467.44 154.56 464.77 152.44 464.59 148.99H467.47C467.64 151.06 469.47 152.04 471.68 152.05C474.1 152.05 475.85 150.82 475.86 148.97C475.85 147.32 474.28 146.66 472.28 146.12L470.03 145.52C466.99 144.68 465.1 143.14 465.09 140.5C465.1 137.23 468 135.06 471.83 135.06C475.66 135.06 478.35 137.26 478.44 140.31H475.64C475.46 138.55 473.91 137.54 471.75 137.54Z" fill="#393A3A"/>
<path d="M510.09 135.31V147.75C510.1 151.72 507.11 154.55 502.59 154.55C498.07 154.55 495.05 151.73 495.06 147.75V135.31H497.94V147.52C497.93 150.08 499.72 151.93 502.59 151.94C505.45 151.94 507.22 150.08 507.22 147.52V135.31H510.1H510.09Z" fill="#393A3A"/>
<path d="M542.66 154.24H540.02L530.43 140.41H530.27V154.24H527.39V135.31H530.06L539.65 149.16H539.83V135.31H542.65V154.24H542.66Z" fill="#393A3A"/>
<path d="M567.8 137.69C564.61 137.69 562.17 140.19 562.15 144.77C562.16 149.34 564.58 151.87 567.93 151.85C570.95 151.85 572.95 149.94 573 146.91H568.35V144.53H575.8V146.67C575.8 151.47 572.51 154.49 567.91 154.49C562.79 154.49 559.31 150.77 559.31 144.77C559.31 138.77 562.89 135.05 567.78 135.05C571.87 135.05 575.03 137.6 575.67 141.3H572.72C572.01 139.07 570.3 137.68 567.81 137.69H567.8Z" fill="#393A3A"/>
</g>
<defs>
<clipPath id="clip0_577_4378">
<rect width="575.8" height="155.6" fill="white" transform="translate(0 0.599976)"/>
</clipPath>
</defs>
</svg>
